<?xml version="1.0" encoding="utf-8"?>
<!-- Generator: Adobe Illustrator 17.0.0, SVG Export Plug-In . SVG Version: 6.00 Build 0)  -->
<!DOCTYPE svg PUBLIC "-//W3C//DTD SVG 1.1//EN" "http://www.w3.org/Graphics/SVG/1.1/DTD/svg11.dtd">
<svg version="1.1" id="Layer_1" xmlns="http://www.w3.org/2000/svg" xmlns:xlink="http://www.w3.org/1999/xlink" x="0px" y="0px"
	 width="22px" height="18px" viewBox="0 0 22 18" enable-background="new 0 0 22 18" xml:space="preserve">
<g>
	<path fill="#FFFFFF" d="M22,2c0,1.105-0.895,2-2,2H2C0.895,4,0,3.105,0,2l0,0c0-1.105,0.895-2,2-2h18C21.105,0,22,0.895,22,2L22,2z
		"/>
	<path fill="#FFFFFF" d="M22,9c0,1.105-0.895,2-2,2H2c-1.105,0-2-0.895-2-2l0,0c0-1.105,0.895-2,2-2h18C21.105,7,22,7.895,22,9L22,9
		z"/>
	<path fill="#FFFFFF" d="M22,16c0,1.105-0.895,2-2,2H2c-1.105,0-2-0.895-2-2l0,0c0-1.105,0.895-2,2-2h18C21.105,14,22,14.895,22,16
		L22,16z"/>
</g>
</svg>
